<svg width="308" height="320" viewBox="0 0 308 320" fill="none" xmlns="http://www.w3.org/2000/svg">
<g filter="url(#filter0_d)">
<path fill-rule="evenodd" clip-rule="evenodd" d="M53.8364 207.285C49.6753 191.462 45.1695 174.991 36.9559 160.84C27.6797 144.86 22.3428 126.131 22.3428 106.106C22.3428 47.5053 68.0486 0 124.43 0C175.999 0 233.296 26.0287 265.408 66.3805C278.298 82.5782 286 103.089 286 125.398C286 180.376 241.658 232.545 190.493 252.659C185.568 254.595 180.441 256.276 175.138 257.671C119.323 272.349 65.0143 249.79 53.8364 207.285Z" fill="white"/>
<path fill-rule="evenodd" clip-rule="evenodd" d="M87.1697 38.0294C91.3635 73.5298 75.9861 110.396 84.3738 162.281C106.741 165.012 155.669 154.088 172.444 162.281C169.649 118.588 176.638 73.5298 172.444 38.0294C133.302 33.9332 117.924 43.491 87.1697 38.0294Z" fill="#FFEBAD"/>
<path d="M97.508 63.3443C125.734 66.3867 133.051 61.316 151.868 62.3301M98.5534 54.2169C116.325 56.2452 122.597 53.2028 133.051 52.1886M92.281 103.91C112.143 105.939 136.187 102.896 144.551 101.882M98.5534 39.4671C94.9641 39.2027 91.1988 38.7449 87.1697 38.0294C90.6601 67.5757 80.5938 98.0677 81.9545 137.377M104.826 39.7479C125.406 40.087 141.498 34.7909 172.444 38.0294C172.909 41.9608 173.236 46.0094 173.455 50.1603L173.798 61.316C173.864 66.9928 173.785 72.8239 173.626 78.7757M82.5579 147.519C82.964 152.305 83.5559 157.222 84.3738 162.281C106.741 165.012 155.669 154.088 172.444 162.281C170.8 136.589 172.54 110.425 173.399 86.0102" stroke="black" stroke-width="2" stroke-linecap="round" stroke-linejoin="round"/>
<path fill-rule="evenodd" clip-rule="evenodd" d="M75.9158 29.9911C80.1096 65.4915 64.7322 102.357 73.1199 154.242C95.487 156.973 144.415 146.05 161.191 154.242C158.395 110.55 165.384 65.4915 161.191 29.9911C122.048 25.8949 106.67 35.4527 75.9158 29.9911Z" fill="#FFEBAD"/>
<path d="M86.2541 55.306C114.48 58.3484 121.797 53.2777 140.614 54.2918M87.2995 46.1786C105.071 48.2069 111.343 45.1645 121.797 44.1503M81.0271 95.872C100.89 97.9003 124.934 94.8579 133.297 93.8437M87.2995 31.4288C83.7102 31.1644 79.9449 30.7066 75.9158 29.9911C79.4062 59.5374 69.3399 90.0294 70.7006 129.339M93.5718 31.7096C114.152 32.0487 130.244 26.7526 161.191 29.9911C161.655 33.9225 161.982 37.9711 162.201 42.122M162.545 53.2777C162.901 84.1706 158.976 119.635 161.191 154.242C144.415 146.05 95.487 156.973 73.1199 154.242C72.302 149.183 71.7101 144.267 71.304 139.48" stroke="black" stroke-width="2" stroke-linecap="round" stroke-linejoin="round"/>
<path d="M86.2543 65.4474L83.1182 84.7162C110.298 86.7445 124.934 82.6879 153.159 84.7162L154.205 65.4474C125.979 62.4049 113.434 67.4757 86.2543 65.4474Z" fill="#2196F3"/>
<path d="M98.7511 76.3519L98.5239 76.2294L98.799 76.096L98.7511 76.3519Z" fill="#2196F3"/>
<path d="M116.523 75.3377L116.296 75.2153L116.571 75.0818L116.523 75.3377Z" fill="#2196F3"/>
<path d="M134.294 75.3377L134.067 75.2153L134.342 75.0818L134.294 75.3377Z" fill="#2196F3"/>
<path d="M93.5721 73.5606L98.5239 76.2294M98.5239 76.2294L98.7511 76.3519M98.5239 76.2294L98.799 76.096M98.5239 76.2294L93.5721 78.6314M98.7511 76.3519L102.981 78.6314M98.7511 76.3519L98.799 76.096M98.7511 76.3519L97.7536 81.6738M104.026 73.5606L98.799 76.096M98.799 76.096L99.8444 70.5182M111.344 72.5465L116.296 75.2153M116.296 75.2153L116.523 75.3377M116.296 75.2153L116.571 75.0818M116.296 75.2153L111.344 77.6172M116.523 75.3377L120.752 77.6172M116.523 75.3377L116.571 75.0818M116.523 75.3377L115.525 80.6597M121.798 72.5465L116.571 75.0818M116.571 75.0818L117.616 69.504M129.115 72.5465L134.067 75.2153M134.067 75.2153L134.294 75.3377M134.067 75.2153L134.342 75.0818M134.067 75.2153L129.115 77.6172M134.294 75.3377L138.524 77.6172M134.294 75.3377L134.342 75.0818M134.294 75.3377L133.297 80.6597M139.569 72.5465L134.342 75.0818M134.342 75.0818L135.388 69.504M86.2543 65.4474L83.1182 84.7162C110.298 86.7445 124.934 82.6879 153.159 84.7162L154.205 65.4474C125.979 62.4049 113.434 67.4757 86.2543 65.4474Z" stroke="black" stroke-width="2" stroke-linecap="round" stroke-linejoin="round"/>
<path d="M175.111 91.9777C168.839 97.0485 166.748 103.133 161.521 112.261C146.312 111.393 128.806 112.01 105.071 113.478C103.361 113.584 101.619 113.694 99.8435 113.808C97.4661 113.961 95.028 114.122 92.5259 114.289C89.3763 125.747 88.599 155.616 90.1939 179.195C90.3348 181.278 90.4942 183.312 90.6721 185.28C91.1541 190.61 91.772 195.456 92.5257 199.478C97.2694 200.628 105.027 201.413 114.479 201.904C116.821 202.025 119.267 202.129 121.797 202.215C154.061 203.319 199.986 201.659 217.972 199.478C218.452 195.636 218.836 191.555 219.137 187.308C219.256 185.642 219.361 183.95 219.455 182.237C220.796 157.752 219.727 128.992 218.759 109.218C218.616 106.305 218.476 103.586 218.346 101.105C218.206 98.4492 218.079 96.0656 217.972 94.006C210.655 90.9636 184.52 91.9777 175.111 91.9777Z" fill="#FFC107"/>
<path d="M219.137 187.308C218.836 191.555 218.452 195.636 217.972 199.478C199.986 201.659 154.061 203.319 121.797 202.215M219.455 182.237C220.796 157.752 219.727 128.992 218.759 109.218M99.8435 113.808C97.4661 113.961 95.028 114.122 92.5259 114.289C89.3763 125.747 88.599 155.616 90.1939 179.195M105.071 113.478C128.806 112.01 146.312 111.393 161.521 112.261C166.748 103.133 168.839 97.0485 175.111 91.9777C184.52 91.9777 210.655 90.9636 217.972 94.006C218.079 96.0656 218.206 98.4492 218.346 101.105M90.6721 185.28C91.1541 190.61 91.772 195.456 92.5257 199.478C97.2694 200.628 105.027 201.413 114.479 201.904" stroke="black" stroke-width="2" stroke-linecap="round" stroke-linejoin="round"/>
<path fill-rule="evenodd" clip-rule="evenodd" d="M182.651 165.663C180.737 165.295 178.863 164.954 177.024 164.642C174.835 164.27 172.695 163.939 170.593 163.652C158.749 162.036 148.116 161.814 136.832 163.545C134.85 163.85 132.848 164.214 130.815 164.642C129.354 164.949 127.878 165.289 126.382 165.663C124.745 174.259 124.758 189.39 125.26 202.64C125.377 205.724 125.52 208.707 125.675 211.482C125.901 215.513 126.151 219.105 126.382 221.932C130.79 222.533 135.098 223.034 139.431 223.398C141.564 223.577 143.702 223.723 145.862 223.831C156.916 224.385 168.515 223.951 182.651 221.932C184.111 211.711 185.276 200.606 185.076 188.974C185.013 185.273 184.811 181.518 184.436 177.721C184.044 173.743 183.462 169.72 182.651 165.663Z" fill="#4CAF50"/>
<path d="M177.024 164.642C181.043 147.175 178.631 132.706 157.732 131.902C153.211 131.728 149.256 132.023 145.862 132.838C141.67 133.844 138.332 135.643 135.841 138.333C131.022 143.536 129.368 152.071 130.815 164.642C132.848 164.214 134.85 163.85 136.832 163.545C133.617 141.348 146.478 135.118 157.732 136.725C168.985 138.333 177.024 147.173 170.593 163.652C172.695 163.939 174.835 164.27 177.024 164.642Z" fill="white"/>
<path d="M177.024 164.642C178.863 164.954 180.737 165.295 182.651 165.663C183.462 169.719 184.054 178.566 184.446 182.544M177.024 164.642C181.043 147.175 178.632 132.705 157.732 131.902C151.489 131.662 144.254 131.902 141.039 134.314M177.024 164.642C174.836 164.27 172.695 163.939 170.593 163.652M130.816 164.642C129.355 164.949 127.878 165.289 126.383 165.663C122.551 180.132 123.355 192.19 124.962 205.855M130.816 164.642C132.848 164.214 134.85 163.849 136.832 163.545M130.816 164.642C129.369 152.07 131.023 143.536 135.842 138.333M136.832 163.545C133.617 141.348 146.478 135.921 157.732 137.529C168.986 139.137 177.024 147.172 170.593 163.652M136.832 163.545C148.116 161.814 158.75 162.036 170.593 163.652M125.766 211.482C126.473 215.501 127.143 219.105 127.374 221.931C131.782 222.532 135.099 223.034 139.431 223.398M185.077 188.974C185.277 200.606 184.111 211.711 182.651 221.931C168.515 223.951 156.916 224.385 145.862 223.831M155.321 175.309C148.086 175.309 146.478 183.347 150.498 187.367C149.212 197.013 148.354 203.711 148.086 205.855H160.947L159.34 187.367C163.359 184.955 162.555 175.309 155.321 175.309Z" stroke="black" stroke-width="2" stroke-linecap="round" stroke-linejoin="round"/>
</g>
<defs>
<filter id="filter0_d" x="0.342773" y="0" width="307.657" height="319.152" filterUnits="userSpaceOnUse" color-interpolation-filters="sRGB">
<feFlood flood-opacity="0" result="BackgroundImageFix"/>
<feColorMatrix in="SourceAlpha" type="matrix" values="0 0 0 0 0 0 0 0 0 0 0 0 0 0 0 0 0 0 127 0" result="hardAlpha"/>
<feOffset dy="35"/>
<feGaussianBlur stdDeviation="11"/>
<feComposite in2="hardAlpha" operator="out"/>
<feColorMatrix type="matrix" values="0 0 0 0 0 0 0 0 0 0 0 0 0 0 0 0 0 0 0.03 0"/>
<feBlend mode="normal" in2="BackgroundImageFix" result="effect1_dropShadow"/>
<feBlend mode="normal" in="SourceGraphic" in2="effect1_dropShadow" result="shape"/>
</filter>
</defs>
</svg>
